<svg xmlns="http://www.w3.org/2000/svg" width="1200" height="1500" viewBox="0 0 1200 1500">
<defs>
  <radialGradient id="bgGlow" cx="50%" cy="0%" r="75%"><stop offset="0" stop-color="#172736"/><stop offset=".6" stop-color="#0b1118"/><stop offset="1" stop-color="#0b1118"/></radialGradient>
  <linearGradient id="card" x1="0" y1="0" x2="1" y2="1"><stop stop-color="#15212a"/><stop offset="1" stop-color="#111a22"/></linearGradient>
</defs>
<rect width="1200" height="1500" fill="url(#bgGlow)"/>
<g font-family="Arial, sans-serif" fill="#e7edf4">
  <!-- Header -->
  <path d="M50 89H1150" stroke="#1c2630"/>
  <rect x="54" y="30" width="31" height="31" rx="9" fill="#12221b" stroke="#527f6c"/>
  <path d="M60 46h4l4-8 6 16 5-9h3" fill="none" stroke="#9fe0bd" stroke-width="2"/>
  <text x="99" y="51" font-size="15" letter-spacing="2">BDM <tspan fill="#96a5b2">LIVE COACH</tspan></text>
  <rect x="964" y="33" width="140" height="29" rx="15" fill="#101820" stroke="#385c4b"/>
  <circle cx="981" cy="47" r="4" fill="#78d5a2"/><text x="992" y="51" font-size="11" fill="#b4e9c9" letter-spacing="1">NA ŻYWO · 08:42</text>
  <rect x="1115" y="31" width="34" height="34" rx="9" fill="#101820" stroke="#26313b"/><text x="1125" y="53" font-size="17" fill="#94a3b0">⚙</text>
  <!-- Hero -->
  <path d="M50 560H1150" stroke="#202a34"/>
  <path d="M443 139h28m258 0h28" stroke="#486450"/>
  <text x="600" y="143" text-anchor="middle" font-family="monospace" font-size="11" fill="#9ab1a4" letter-spacing="2">ASYSTENT SPOTKAŃ B2B</text>
  <text x="600" y="231" text-anchor="middle" font-size="70" font-weight="500" letter-spacing="-3">Jestem na</text>
  <text x="600" y="311" text-anchor="middle" font-family="Georgia,serif" font-size="76" font-style="italic" fill="#9fe0bd" letter-spacing="-3">nasłuchu.</text>
  <text x="600" y="359" text-anchor="middle" font-size="17" fill="#8d9ba6">Analizuję przebieg spotkania. Wróć tu po krótką, konkretną podpowiedź.</text>
  <rect x="432" y="393" width="336" height="53" rx="9" fill="#47292b"/>
  <path d="M461 412v15m7-15v15m7-15v15" stroke="#ffd5d0" stroke-width="3" stroke-linecap="round"/>
  <text x="493" y="426" font-size="15" font-weight="bold" fill="#ffd5d0">Zatrzymaj nasłuchiwanie</text>
  <text x="600" y="480" text-anchor="middle" font-family="monospace" font-size="11" fill="#9fe0bd" letter-spacing="1.5">▂ ▅ ▇ ▄ ▆ ▃ &#160; MIKROFON AKTYWNY · SŁUCHAM SPOTKANIA</text>
  <text x="600" y="514" text-anchor="middle" font-size="12" fill="#697782">✓ Brak nagrania w aplikacji &#160; · &#160; Bez dźwięków i wibracji &#160; · &#160; AI połączone</text>
  <!-- Coach section heading -->
  <text x="250" y="613" font-family="monospace" font-size="11" fill="#829e8e" letter-spacing="1.5">◉ &#160; PODPOWIEDŹ NA TERAZ</text>
  <text x="250" y="648" font-size="24" font-weight="500">Twój następny ruch</text>
  <rect x="927" y="612" width="128" height="33" rx="7" fill="#101820" stroke="#28323b"/>
  <text x="946" y="633" font-size="12" fill="#82909b">↻ &#160; Nowa sesja</text>
  <!-- Main suggestion card -->
  <rect x="250" y="675" width="805" height="509" rx="13" fill="url(#card)" stroke="#2e3b44"/>
  <rect x="271" y="696" width="28" height="28" rx="8" fill="#244030"/><text x="278" y="716" font-size="18" fill="#a1ddbd">✧</text>
  <text x="311" y="715" font-size="13" font-weight="bold" fill="#c2d0d4">Selekcja · klient właśnie nazwał problem</text>
  <rect x="870" y="699" width="165" height="22" rx="11" fill="#15251d" stroke="#33443a"/><text x="952" y="714" text-anchor="middle" font-family="monospace" font-size="9" fill="#a8d9b7" letter-spacing=".5">PRIORYTET WYSOKI</text>
  <path d="M276 755v82" stroke="#658b73" stroke-width="2"/>
  <text x="290" y="762" font-family="monospace" font-size="10" fill="#769080" letter-spacing=".7">KLIENT · TRANSKRYPCJA NA ŻYWO</text>
  <text x="290" y="786" font-size="15" font-style="italic" fill="#adbac0">„Na jedno stanowisko wpada czasem 150 CV, ale sensownych kandydatów</text>
  <text x="290" y="808" font-size="15" font-style="italic" fill="#adbac0">jest może dziesięciu.”</text>
  <path d="M274 855H1031" stroke="#28343d"/>
  <text x="276" y="884" font-family="monospace" font-size="11" fill="#a4dabc" letter-spacing="1">⭐ &#160; ZADAJ TERAZ</text>
  <text x="276" y="921" font-size="22" font-weight="600" fill="#eff3f2">„Jak dużo czasu zajmuje dziś przejrzenie tych wszystkich zgłoszeń?”</text>
  <path d="M278 950h7" stroke="#80b397" stroke-width="2"/><text x="292" y="954" font-size="12" fill="#8998a1">Nie zakładaj skali problemu — pozwól klientowi opisać ją własnymi słowami.</text>
  <path d="M274 977H1031" stroke="#28343d"/>
  <text x="276" y="1007" font-family="monospace" font-size="11" fill="#9caca6" letter-spacing="1">ALTERNATYWA 1</text>
  <text x="276" y="1043" font-size="20" font-weight="500" fill="#e8eeee">„Co dzieje się z pozostałymi CV po zakończeniu rekrutacji?”</text>
  <path d="M278 1070h7" stroke="#80b397" stroke-width="2"/><text x="292" y="1074" font-size="12" fill="#8998a1">Może otworzyć temat ponownego wykorzystania kandydatów.</text>
  <path d="M274 1101H1031" stroke="#28343d"/>
  <text x="276" y="1138" font-size="11" fill="#66747e">✓ &#160; Krótko. Naturalnie. Do użycia od razu.</text><text x="904" y="1138" font-size="11" fill="#9aa8b0">Pokaż kontekst &#160;⌄</text>
  <text x="652" y="1206" text-anchor="middle" font-family="monospace" font-size="10" fill="#64727a" letter-spacing="1">MAKSYMALNIE 3 KARTY · PODPOWIEDZI WIDOCZNE TYLKO DLA CIEBIE</text>
  <!-- Manual prompt -->
  <text x="250" y="1263" font-family="monospace" font-size="10" fill="#61716d" letter-spacing="1">ALBO</text>
  <text x="291" y="1263" font-size="14" fill="#b6c1c5">Potrzebujesz podpowiedzi od razu?</text>
  <rect x="250" y="1280" width="805" height="47" rx="9" fill="#101820" stroke="#2b3740"/>
  <text x="268" y="1309" font-size="13" fill="#63717d">Wpisz hasło lub krótki cytat klienta…</text>
  <rect x="915" y="1285" width="133" height="37" rx="6" fill="#253d31"/><text x="936" y="1308" font-size="12" fill="#b4e5c7">Podpowiedz &#160;→</text>
  <g font-size="11" fill="#98a6ad"><rect x="250" y="1341" width="59" height="27" rx="14" fill="#121b22" stroke="#27323a"/><text x="279" y="1359" text-anchor="middle">Cena</text><rect x="317" y="1341" width="55" height="27" rx="14" fill="#121b22" stroke="#27323a"/><text x="344" y="1359" text-anchor="middle">Test</text><rect x="380" y="1341" width="82" height="27" rx="14" fill="#121b22" stroke="#27323a"/><text x="421" y="1359" text-anchor="middle">Selekcja</text><rect x="470" y="1341" width="86" height="27" rx="14" fill="#121b22" stroke="#27323a"/><text x="513" y="1359" text-anchor="middle">Manager</text><rect x="564" y="1341" width="58" height="27" rx="14" fill="#121b22" stroke="#27323a"/><text x="593" y="1359" text-anchor="middle">RODO</text></g>
  <path d="M50 1401H1150" stroke="#1c2630"/><text x="250" y="1432" font-family="monospace" font-size="10" fill="#a2b3aa" letter-spacing="1">BDM / COACH</text><text x="353" y="1432" font-size="10" fill="#61707a">zbudowany dla lepszych rozmów</text><text x="1000" y="1432" font-size="11" fill="#77858f">ⓘ &#160; Jak to działa</text>
  <rect y="1458" width="1200" height="42" fill="#111a22"/><path d="M0 1458H1200" stroke="#2b3942"/><rect x="412" y="1473" width="15" height="15" rx="3" fill="none" stroke="#9fe0bd"/><path d="M415 1480l4 4 7-8" fill="none" stroke="#9fe0bd" stroke-width="1.5"/><text x="439" y="1486" font-size="12" fill="#a8b5ba">Potwierdzam, że mogę używać transkrypcji z tego spotkania.</text>
</g>
</svg>
